<svg t="1650503526992" class="icon" viewBox="0 0 1024 1024" version="1.1" xmlns="http://www.w3.org/2000/svg" p-id="1821" width="24" height="24"><path d="M512 51.2c254.49472 0 460.8 206.30528 460.8 460.8S766.49472 972.8 512 972.8 51.2 766.49472 51.2 512 257.50528 51.2 512 51.2z m0 70.89152c-215.3472 0-389.90848 174.57152-389.90848 389.90848 0 215.3472 174.57152 389.90848 389.90848 389.90848 215.3472 0 389.90848-174.57152 389.90848-389.90848 0-215.3472-174.57152-389.90848-389.90848-389.90848z" fill="#000000" p-id="1822"></path><path d="M687.45216 436.80768c41.5232 41.5232 41.5232 108.8512 0 150.38464l-100.25984 100.2496c-41.5232 41.53344-108.8512 41.53344-150.38464 0l-100.2496-100.2496c-41.53344-41.5232-41.53344-108.8512 0-150.38464l100.2496-100.2496c41.5232-41.53344 108.8512-41.53344 150.38464 0l100.2496 100.2496z m-50.13504 50.1248l-100.2496-100.2496a35.45088 35.45088 0 0 0-47.04256-2.7648l-3.09248 2.7648-100.2496 100.2496a35.45088 35.45088 0 0 0-2.7648 47.04256l2.7648 3.09248 100.2496 100.2496a35.45088 35.45088 0 0 0 47.04256 2.7648l3.09248-2.7648 100.2496-100.2496a35.45088 35.45088 0 0 0 2.7648-47.04256l-2.7648-3.09248z" fill="#000000" p-id="1823"></path></svg>